# xmcd
#
# Track frame offsets:
#  150
#  19476
#  39822
#  53430
#  69146
#  87066
#  102205
#  117678
#  137186
#  153014
#  169150
#  191362
#  204857
#  218965
#  233089
#  248320
#  264592
#  278094
#
# Disc length: 3879 seconds
#
# Revision: 0
# Processed by: cddbd v1.5.1PL2 Copyright (c) Steve Scherf et al.
# Submitted via: Collectorz.com_Music_Collector 6.9
#
DISCID=e40f2512
DTITLE=Nomadi - The Platinum Collection Cd3
DYEAR=1900
DGENRE=
TTITLE0=Track - No01
TTITLE1=Track - No02
TTITLE2=Track - No03
TTITLE3=Track - No04
TTITLE4=Track - No05
TTITLE5=Track - No06
TTITLE6=Track - No07
TTITLE7=Track - No08
TTITLE8=Track - No09
TTITLE9=Track - No10
TTITLE10=Track - No11
TTITLE11=Track - No12
TTITLE12=Track - No13
TTITLE13=Track - No14
TTITLE14=Track - No15
TTITLE15=Track - No16
TTITLE16=Track - No17
TTITLE17=Track - No18
EXTD=
EXTT0=
EXTT1=
EXTT2=
EXTT3=
EXTT4=
EXTT5=
EXTT6=
EXTT7=
EXTT8=
EXTT9=
EXTT10=
EXTT11=
EXTT12=
EXTT13=
EXTT14=
EXTT15=
EXTT16=
EXTT17=
PLAYORDER=
